# xmcd
#
# Track frame offsets:
#	150
#	14970
#	28567
#	43665
#	54690
#	70592
#	87950
#	102235
#	115737
#	128405
#
# Disc length: 1908
#
# Revision: 1
# Processed by: cddbd v1.5.1PL0 Copyright (c) Steve Scherf et al.
# Submitted via: CDex 1.40Beta9
# Normalized: r0:DSETVAR1,TDELIM( - )
#
DISCID=7f07720a
DTITLE=Various Artist - Super Hits of the 80's
DYEAR=1997
DGENRE=Country
TTITLE0=George Jones - He Stopped Loving Her Today
TTITLE1=Merle Haggard - Big City
TTITLE2=Ricky Van Shelton - Somebody Lied
TTITLE3=Vern Gosdin - Set 'Em Up Joe
TTITLE4=Willie Nelson - Always On My Mind
TTITLE5=Ricky Skaggs - Country Boy
TTITLE6=Roseanne Cash - Tennessee Flat Top Box
TTITLE7=Shenandoah - The Church On Cumberland Road
TTITLE8=Exile - Give Me One More Chance
TTITLE9=Crystal Gale - If You Ever Change Your Mind
EXTD=YEAR: 1997 ID3G: 2
EXTT0=
EXTT1=
EXTT2=
EXTT3=
EXTT4=
EXTT5=
EXTT6=
EXTT7=
EXTT8=
EXTT9=
PLAYORDER=
